<mxfile host="app.diagrams.net" modified="2023-12-14T15:08:27.022Z" agent="Mozilla/5.0 (Macintosh; Intel Mac OS X 10_15_7) AppleWebKit/537.36 (KHTML, like Gecko) Chrome/120.0.0.0 Safari/537.36" etag="EZXi0nDeha8UIoqCHMuQ" version="22.1.8" type="github">
  <diagram name="Page-1" id="JEvV4KB_SrcCvdY6_MqZ">
    <mxGraphModel dx="1306" dy="680" grid="1" gridSize="10" guides="1" tooltips="1" connect="1" arrows="1" fold="1" page="1" pageScale="1" pageWidth="850" pageHeight="1100" math="0" shadow="0">
      <root>
        <mxCell id="0" />
        <mxCell id="1" parent="0" />
        <mxCell id="8MyqyigHdS4ntQqRPGFD-7" style="edgeStyle=orthogonalEdgeStyle;rounded=0;orthogonalLoop=1;jettySize=auto;html=1;exitX=1;exitY=0.25;exitDx=0;exitDy=0;entryX=0;entryY=0.25;entryDx=0;entryDy=0;" parent="1" source="8MyqyigHdS4ntQqRPGFD-1" target="8MyqyigHdS4ntQqRPGFD-6" edge="1">
          <mxGeometry relative="1" as="geometry" />
        </mxCell>
        <mxCell id="8MyqyigHdS4ntQqRPGFD-10" value="3. call APIs with Auth0&amp;nbsp;&lt;br&gt;access token" style="edgeLabel;html=1;align=center;verticalAlign=middle;resizable=0;points=[];" parent="8MyqyigHdS4ntQqRPGFD-7" vertex="1" connectable="0">
          <mxGeometry x="-0.0636" y="2" relative="1" as="geometry">
            <mxPoint y="-15" as="offset" />
          </mxGeometry>
        </mxCell>
        <mxCell id="8MyqyigHdS4ntQqRPGFD-1" value="Client app" style="whiteSpace=wrap;html=1;aspect=fixed;" parent="1" vertex="1">
          <mxGeometry x="190" y="280" width="110" height="110" as="geometry" />
        </mxCell>
        <mxCell id="8MyqyigHdS4ntQqRPGFD-3" style="edgeStyle=orthogonalEdgeStyle;rounded=0;orthogonalLoop=1;jettySize=auto;html=1;exitX=0.75;exitY=0;exitDx=0;exitDy=0;entryX=0;entryY=0.75;entryDx=0;entryDy=0;entryPerimeter=0;" parent="1" source="8MyqyigHdS4ntQqRPGFD-1" edge="1">
          <mxGeometry relative="1" as="geometry">
            <mxPoint x="500" y="202.5" as="targetPoint" />
            <Array as="points">
              <mxPoint x="273" y="203" />
            </Array>
          </mxGeometry>
        </mxCell>
        <mxCell id="8MyqyigHdS4ntQqRPGFD-4" value="1. call&amp;nbsp;oauth/token&lt;br&gt;using&amp;nbsp;client_credentials grant" style="edgeLabel;html=1;align=center;verticalAlign=middle;resizable=0;points=[];" parent="8MyqyigHdS4ntQqRPGFD-3" vertex="1" connectable="0">
          <mxGeometry x="0.1475" y="-2" relative="1" as="geometry">
            <mxPoint y="16" as="offset" />
          </mxGeometry>
        </mxCell>
        <mxCell id="8MyqyigHdS4ntQqRPGFD-5" value="2. return JWT Access Token" style="edgeStyle=orthogonalEdgeStyle;rounded=0;orthogonalLoop=1;jettySize=auto;html=1;exitX=0;exitY=0.25;exitDx=0;exitDy=0;entryX=0.25;entryY=0;entryDx=0;entryDy=0;exitPerimeter=0;" parent="1" target="8MyqyigHdS4ntQqRPGFD-1" edge="1">
          <mxGeometry x="-0.3253" y="-7" relative="1" as="geometry">
            <mxPoint as="offset" />
            <mxPoint x="500" y="147.5" as="sourcePoint" />
          </mxGeometry>
        </mxCell>
        <mxCell id="8MyqyigHdS4ntQqRPGFD-8" style="edgeStyle=orthogonalEdgeStyle;rounded=0;orthogonalLoop=1;jettySize=auto;html=1;exitX=0;exitY=0.75;exitDx=0;exitDy=0;entryX=1;entryY=0.75;entryDx=0;entryDy=0;" parent="1" source="8MyqyigHdS4ntQqRPGFD-6" target="8MyqyigHdS4ntQqRPGFD-1" edge="1">
          <mxGeometry relative="1" as="geometry" />
        </mxCell>
        <mxCell id="8MyqyigHdS4ntQqRPGFD-12" value="5a. return HTTP 200&amp;nbsp;" style="edgeLabel;html=1;align=center;verticalAlign=middle;resizable=0;points=[];" parent="8MyqyigHdS4ntQqRPGFD-8" vertex="1" connectable="0">
          <mxGeometry x="0.1091" y="-2" relative="1" as="geometry">
            <mxPoint x="22" y="10" as="offset" />
          </mxGeometry>
        </mxCell>
        <mxCell id="8MyqyigHdS4ntQqRPGFD-13" style="edgeStyle=orthogonalEdgeStyle;rounded=0;orthogonalLoop=1;jettySize=auto;html=1;exitX=0.25;exitY=1;exitDx=0;exitDy=0;entryX=0.75;entryY=1;entryDx=0;entryDy=0;dashed=1;" parent="1" source="8MyqyigHdS4ntQqRPGFD-6" target="8MyqyigHdS4ntQqRPGFD-1" edge="1">
          <mxGeometry relative="1" as="geometry">
            <Array as="points">
              <mxPoint x="548" y="440" />
              <mxPoint x="273" y="440" />
            </Array>
          </mxGeometry>
        </mxCell>
        <mxCell id="8MyqyigHdS4ntQqRPGFD-15" value="5b. return HTTP 401 - invalid / expired token" style="edgeLabel;html=1;align=center;verticalAlign=middle;resizable=0;points=[];" parent="8MyqyigHdS4ntQqRPGFD-13" vertex="1" connectable="0">
          <mxGeometry x="0.1333" y="-3" relative="1" as="geometry">
            <mxPoint x="35" y="13" as="offset" />
          </mxGeometry>
        </mxCell>
        <mxCell id="8MyqyigHdS4ntQqRPGFD-14" value="5c. return HTTP 403 - Forbidden" style="edgeStyle=orthogonalEdgeStyle;rounded=0;orthogonalLoop=1;jettySize=auto;html=1;exitX=0.75;exitY=1;exitDx=0;exitDy=0;entryX=0.25;entryY=1;entryDx=0;entryDy=0;dashed=1;" parent="1" source="8MyqyigHdS4ntQqRPGFD-6" target="8MyqyigHdS4ntQqRPGFD-1" edge="1">
          <mxGeometry x="0.0331" y="10" relative="1" as="geometry">
            <Array as="points">
              <mxPoint x="603" y="500" />
              <mxPoint x="218" y="500" />
            </Array>
            <mxPoint x="1" as="offset" />
          </mxGeometry>
        </mxCell>
        <mxCell id="8MyqyigHdS4ntQqRPGFD-6" value="SpringBoot app" style="whiteSpace=wrap;html=1;aspect=fixed;" parent="1" vertex="1">
          <mxGeometry x="520" y="280" width="110" height="110" as="geometry" />
        </mxCell>
        <mxCell id="8MyqyigHdS4ntQqRPGFD-9" style="edgeStyle=orthogonalEdgeStyle;rounded=0;orthogonalLoop=1;jettySize=auto;html=1;exitX=1;exitY=0.25;exitDx=0;exitDy=0;entryX=1;entryY=0.75;entryDx=0;entryDy=0;" parent="1" source="8MyqyigHdS4ntQqRPGFD-6" target="8MyqyigHdS4ntQqRPGFD-6" edge="1">
          <mxGeometry relative="1" as="geometry">
            <Array as="points">
              <mxPoint x="690" y="308" />
              <mxPoint x="690" y="363" />
            </Array>
          </mxGeometry>
        </mxCell>
        <mxCell id="8MyqyigHdS4ntQqRPGFD-11" value="4. Validate the JWT&amp;nbsp;&lt;br&gt;access token &amp;amp; scope" style="edgeLabel;html=1;align=center;verticalAlign=middle;resizable=0;points=[];" parent="8MyqyigHdS4ntQqRPGFD-9" vertex="1" connectable="0">
          <mxGeometry x="-0.1143" y="1" relative="1" as="geometry">
            <mxPoint x="19" y="11" as="offset" />
          </mxGeometry>
        </mxCell>
        <mxCell id="vwVOeLHHNCmmt82Mt-l6-2" value="" style="shape=image;verticalLabelPosition=bottom;labelBackgroundColor=default;verticalAlign=top;aspect=fixed;imageAspect=0;image=data:image/png,iVBORw0KGgoAAAANSUhEUgAAAWIAAACOCAMAAAA8c/IFAAAAh1BMVEX///8AAADQ0NDt7e1PT09FRUWioqLx8fEQEBDe3t6bm5tnZ2etra1vb2+6urrn5+f4+Pg2NjYdHR3Dw8O0tLTY2NhdXV2QkJA8PDzp6em7u7vKysrh4eGqqqpDQ0N0dHQoKChTU1OFhYWRkZEtLS0MDAwYGBh9fX1ra2siIiKGhoZhYWE3Nzd1odbjAAAP/ElEQVR4nO1d6bqyOg8VRFG2A26cccJxq+/9X98nQyFp0xYUh/PJ+nGe92zL0EVIkzQJtRqA3bB0GOsGrNxaBTmGhg7jiXbI/N2z+GhctfwNTe2Qn3fP4qOhpc9w3bNuyNF+9zQ+GD0tw1atttYO8t49jw/Gj5a9Za3maQd13z2PD4aWPKNeq7kt3aDfyqaQQS+fQThML+v+u2fysdBr2WY4TP8kTu+eyafC3Wi5W0QDtcOMN8/kY6G3eBvxQL31bL53Jh+Lk5Y5Jx6ot+0qTUHC3WuZaycjtQMrTUFipOVtw4ZWmuI+7LS8OWyoPlq0fedMcsH2fAZv9Nip6l5neUOnt9AM/NXy1k7PqR26f+ymXwC4uI/vP02/iV7p6cSX+10LLW2/2eCxdvCDgvF8QIrvjg36hMrcOLIwmKNlbZIN7hQZ/JkogeJRQzL5HT0+tz0Roq8dPL3vrl+Hhyl2FYGEFhVC0OuJAVQysudHPpB3YeQ0Uyz5Hx+l2D8qp38Rj2hqOUNGwlI73BGv8Wog3cf/+CDFWvcrEJa9QMsZMnX1NsWg+G2XDSg2v/yPj1GsX4yMFXeIXrnu8VOZag/oF77vsvE8ivUhBCPaIYLQPxUu7KBXLO/XFE+jWO8IE5TpXWJujdSL/fs1xdMo1kd9YwzBMbZ+OH8ZvU2hcyefjmdRLIQkx52RXZv5TcHIqGcH6YMOa/46elelWZyUcvEkink10c2IHHLy/Zcdpd+OEzbu29pDLP6QV+NJFHPRA5T85P7hH7M4gpYuIgD8+TbFcyjmNof4sC2W1oD9ea5lS9ATeYKfgkf1YjyH4gDNUfSU8SLFFqSuli0iwUdvuTwQIywFT6EYm1JEtAuHIhLZzLFRRMXn9AHmOnGUgPps0W7nGlkUd1PsKnJttnCCG2ogMgQO8QizocGUCGrcTjXVHdfTcGA6wSYxdI6D65KKMbvLToolGYjtgAFJ7Mn3zRCQjePIjOEnypOm2B1Ogs3v4fC7txx6cwwJVoccgsQsXg3XhKYtA7ur4ke3xy2+0VwFhYQsdjJ6J05ZY+XHD4qi2LPwyJN4QbTYHeipITGOzz019k/YzlxMFRvR9k4SCxxwgqGnGKbYDcVj8lPcJrypNa/BLvBXSYwAKd5zeLlIP5e+SxGFO2XJbT1FsLWBvMJiFD8ixbT7deDeKyTnM8n00PsZSm+8Kkxl4++CHRiKB0eoCAiowl8mxdK4Fgw04CAuH65MgZ5WuMvEsgVp3X0XWGbhP+pHm9N4IsAL+CqKFXsMUI59+INki457H8IFaZBeqaQKAjeLkxC/2voAEnjaL6JYua8GvFTkb9Fq0OW8jKMLlfOhlMTgEdhpJeywHAyDKN2LKFZGA4LsYig/mDTmR0ItjIvNkBLy/ZDJIlrGWyMPUjX3kuVu7UsHR8giPfBRDCi/gwgrmNyGx/7BHJM+VrTCese73cHOHLXbI+/EPXz2Pr1Eiqf/1EekuwvIHCPc7n5AHD0UAr8PhXn5DSrhNvA9nDI15+IlnUVC76HY9SL4MHR+9D2GxKUlyNhvm54334lbQMxtQBSLbzy9pdcUyw+suwMGYvYGHzPGbyRW/XjS/fspZsgdo4gxTk/v8mLHarBQkFxwPDImz9Duv1DLjy62IAGh0Xh9hZ4Bv/OEDKfkHl5HMZr0jNu+SP6Myly4QuRRdsgW5Wr/ZDYbQPeesq4LcaINtgOR5S4GSOGvyWv4Moq5NWj2S/2K9CAOOmSCf5jjZdGqkQW358JBizZp93DFuq6/nFyTCxIxIqizkmDzqygWauNxXVYiDug9gw/FznabgnDKUDX8q0kqFQsGLST+54F0y22z1+wSpgs8SZJ3+CKKCesggL87xCzBBDx+JLSrNrUDTY6xKrBJXw8kJym2fwdX5ETF3GMXMxSgmLhNJMZd8YyA4szW3yR/hHwcZVJsFDDf5rLHJA9GkYCzasV2zWukmNwCIwaQFC9W6Z/WbA2Ddt9BtT80zrfqKbb+WoUMQEc88jVSTAZ+oVVgiWcklsDMKEGmtTp3O0ffA+U26aZIZAmd6aVSTLq0cPFtiGeMD3KzdW4F3liYa3GoqUOLemKUjyh/svzMwz7QSykm3zUYbkgoFiwKM9MByD4I4EzUxeU5dvWUmVf6jCC3bXrOKRBMvvdTDCeWUIzs4hvFoFES9lSh3J7VaayPKgpl9w9/uZ5Kd5g+kmIUhPDtbJ0LOIW4AuP+KVMGc7X5UeVTSI0Sc6JJ2PpIitFBgWKaUHsGSin84w+loMq8omP8dpPy2jE+kmI6q3ojrJZ1+HJ2lblAuRopqZ4R5XnYW7kZneEjKSa5WoumLdqnclQ7PYd8JpdcUwgTq+VpyhLhP0Mx1fkPSd2SjpDFyJn3Jz8BsU+lWl2hBvtIikVxbJDuKzLuPDLMS96xFPJ2LOITVph4XQ+qus+kmK9BkATLTtzJbemLnjNqLG8qJJxAYr40Lp2Fi8PJn0kxt7TLQr4BT4LM+QgkJxAga3kjhAiFFXkz7pjZkvj5FKOjLJkIopuOvC+ZpsidHiQ7gaAnuIDRibN27qIYDng6xfkSrhAfceKwpNNo7hCOS6uaM/+U8e57QwhIfz7FyG2TEoTe6rlwsgyknliTLWnocKawFiBNTPjWOoop1Yc2hZ9PMWJP5rsiFmKTg/Y+iGqY9s0rmxK7IbStK9gzcP+Zest0FFNhXfTYnk8x0gEb6jDulpigkq21Rc+sSU0kAnW8aBRDy4Oy2OG0KYopfx5VwT2fYtyUlfZ+UfSFSTqVoiTEId00lP8nLKVUbaR43/D2qHuDnCQUu8jZFpUfTql8PsVYJzao4/Arnb7KhM/FKxr4irR4rUhU7onZt0gfUTcH1xJG8VR9TlzKKaf4yB94L8U4IkMZXWiPInOQiVaD3PLN6RJOLYravCVeW0cxtbHEvR+88uJEQ06xsqtKEYq51B5Rm2InAciiYNriXgf9Ff97gBczQVNQagoqCsK3RwEARjF+tFzjET5LEVOMIgX8xe6mGL+we15nYusM9avjXTwkpqTfO1eNILc74KsiWgc4msQo5gIgAyg2Qq4yphiRwUeu76aYS/fmPmPC2b9Y0Dj/A+gJWbssGCjlmgWRZZW4jIafFqeJGMVCBOWUyL9NrB+YYrTu8Fb+/RTzFirIN5xxVf7cRbEeB8uDKY3ywHxvfHI6ERy91ys0rz7/GNMMDDGCYm2dyZrcOMcU434OJ/zU76dYaEHTWEav1swUYjW8O4pU14S8koDsdUf0SdweLOpHJ53ZSAwkpRRrOlc34P1xFjseef5xHGdt7duPUjwT7+JfYzUQ93LEUCdUbYx/XX1RuvUKg2jSipGAO3p6WXaWTpeKkWR5ROo78KBkcBTTIcSHKc7RhIY4KEamK9lKqO9UkWr0jAl56bNGIsdB9u+MYmUWQYBMs2Geyz1Occ6aIDJKlGqZONjjygLBCElgKJUm1XaU+qMLM6DlQDacfOMqzLRXUExnOpVAsa7+FVxHAFu0Iot5kbNZVhwYYhpKmQCk/ELTEK6ZMOFQnhPmYQeDd7bIBkZlUJyjS4q0aWj8eCKDWt/tLkUUlIutXlWDhBtmylxbCcWuLK1lyN2mEKCi6m5LoVinK/aKYHt06G29quvbQAOEtb3RLWmT4KTrZ/iYJBTD/EeIyPlRUkzJSTkUq5cpdYloeFN+zcuTTgJwNiObIkfWN99nK0acUSOjmKRq3Bd+IcKsYii7JIprM+nCMtVVyvg3h161wkhwuXmW+T7DZoqCnDyaQD7tOuf9WcwjVtjFEVw+GH4PxfQ2XZvsg9nKkRthd/UpZwRWk9xtofsOCCttxnPmePm9FHPRBfe202i1PA7GnYyUdnaM5JMEbifIVoDfaSz87Z9uBlJxzv+yAWRzpBtmTgPnlu67OWu99B8YJVCs1Wt/5DmTXXM+WhSp8XP77Xb/jp4O9mi+dCbO0B+V/klJe7RcX8dWI7j+TeYFeo+b6jbeBMT0xAoa6A0/hOqrSndgrv06Y4ZW9bnRu5DfMi6r480XQv/dgwgl9m36PohbdiIaT+l3+UXQttB9f1f+/zxMZYPXylQrA3zfMYjKVCsJspjSsTLVSgNtvl0rU61MEOZbZaqVjD7XLW5VaqPYChFQ9E3W9LTCQ8jMt2c07a4QguW2EUW/FcpCaL7xrb8rlAs7qEy1ChUqVKhQoUKFChUqVHgCRvNer9o/yw+jQCeTECYrVruC0Nfx/Z+u/WAUo3gWgADuOA2RDwiKO86uCqFHKERxUhgenMZx8hkTZIriqbzf1ZehCMVRNdo1zmddRLn9iZxSFDcqihMUoDhqKpVlvIf1jEnH64piFQpQvOP2gJvp/1MUW7LC769DRHH7MrZOscx5k0maMtYf9np4KC7xsJgYA4qXk8nWbQ9789vfnF5vmFSgmM7YGm+/c/Pixhurr4l6IYZlVqx6YIvSm0LFgDkKi58iSc0oDstrfVg0FZ3UZI03Bt9o2xlG6884BNcw5TTqFtHNeDXQux7mmeFjQ+UclValFN8YPrbDLJNjWLjRuv03rDuMsqcOg4jnL9wjStOYzHPMl5m2aTZxk6aB2CbESh4Ho3htGL+hkeHWbfe23Hm2XbfjdmG/vu26YSOP0j/+/Pkw0gZ2ZvKpOIs1/TthQs5iKew6UQQJxTc5H6RSaqUWxTC17kyuOdB3wMgazTRiveCxRczAX+A7pz0KUlwSwY4p/kFiDow2e5hcwr0pj+9LiADqcZdo1k1Mjs8ZEHuxu2E3qaIfhGI6xj2mBLt44S+3h7y94v+fANp+9RIxXcZcdrmMf4tvpBa16kt1cZisCsdjikfrpAD3KymeMornzJYwwiLo0FxA9b2OYA/UD4naHrC298CogxTbYfRo5Qw7X0rxBkhxTPEklEePL9cfGXwhS5gBHFkSkYROhkh5Q13cMoxLuODVv5TiVDQdlmBaD621tdDpIewpAxersOll3JQnpHgSmSBZs0FAccBCG4tvpRj0i0r+eVPD/lnoMdkzsGV8NVjPwkEi3wPQCCmjuJ4q8W9VFKx5UeZzhDphQ7T1CDlNP4od6dfEhBgkHSzCvnPMNbTSnpGj9FS3cYevNNpiByPMlk4jEtHmhlBZ4UaFnZdR3a2PorgGewipA+1l4c6/m1sy6/cXbtTzKXw96lFDkP7XcXxTuytj/7cOUAAh6m4jcuHGrbUO+7iLT8BGZGGgS7oXwqphRvEHkYL1zaob3J7RZvNtRTGhFcDKVoCNtpe05oLNa7LVcJMFM63UW76mFKeNivtLfNx3oNvturXJ/tiaOlBqf7gPxmeY/wzOh9/BH2wl3NxN2AtgT3aTREzN4W63m4RKerHeH46D7e0Cw2737zujxjUb18bXlWFHe1bcLKh/nyWhhpPz64kV7sGi3W53DNn3JSs8DjfpM6X/1G+FexHHcw5VJs/z8GNZVrB76uL0P/db3/R3e/E2AAAAAElFTkSuQmCC;" vertex="1" parent="1">
          <mxGeometry x="520" y="120" width="299.15" height="120" as="geometry" />
        </mxCell>
      </root>
    </mxGraphModel>
  </diagram>
</mxfile>
